<svg width="24" height="24" viewBox="0 0 24 24" fill="none" xmlns="http://www.w3.org/2000/svg">
<path d="M2.09652 5.4902C2.01308 5.65063 1.9749 5.83076 1.98608 6.01124C1.99726 6.19173 2.05738 6.36576 2.15999 6.51467L11.0856 19.4072C11.1769 19.539 11.2987 19.6466 11.4407 19.721C11.5827 19.7953 11.7406 19.8342 11.9008 19.8342C12.0611 19.8342 12.219 19.7953 12.3609 19.721C12.5029 19.6466 12.6248 19.539 12.716 19.4072L21.6416 6.51467C21.7446 6.36588 21.8049 6.19177 21.816 6.01118C21.8271 5.83059 21.7885 5.6504 21.7046 5.49013C21.6206 5.32987 21.4944 5.19562 21.3396 5.10194C21.1848 5.00825 21.0074 4.95869 20.8264 4.95863L2.9752 4.95863C2.79417 4.9586 2.61659 5.00812 2.4617 5.10183C2.30681 5.19553 2.18052 5.32984 2.09652 5.4902Z" fill="white"/>
</svg>
