<svg width="29" height="33" viewBox="0 0 29 33" fill="none" xmlns="http://www.w3.org/2000/svg">
<path d="M9.42894 18.0835H6.88058C6.4601 18.0835 6.11607 17.7444 6.11607 17.33V14.8184C6.11607 14.404 6.4601 14.0649 6.88058 14.0649H9.42894C9.84942 14.0649 10.1935 14.404 10.1935 14.8184V17.33C10.1935 17.7444 9.84942 18.0835 9.42894 18.0835ZM16.3095 17.33V14.8184C16.3095 14.404 15.9655 14.0649 15.545 14.0649H12.9967C12.5762 14.0649 12.2321 14.404 12.2321 14.8184V17.33C12.2321 17.7444 12.5762 18.0835 12.9967 18.0835H15.545C15.9655 18.0835 16.3095 17.7444 16.3095 17.33ZM22.4256 17.33V14.8184C22.4256 14.404 22.0816 14.0649 21.6611 14.0649H19.1127C18.6922 14.0649 18.3482 14.404 18.3482 14.8184V17.33C18.3482 17.7444 18.6922 18.0835 19.1127 18.0835H21.6611C22.0816 18.0835 22.4256 17.7444 22.4256 17.33ZM16.3095 23.3578V20.8463C16.3095 20.4318 15.9655 20.0928 15.545 20.0928H12.9967C12.5762 20.0928 12.2321 20.4318 12.2321 20.8463V23.3578C12.2321 23.7723 12.5762 24.1113 12.9967 24.1113H15.545C15.9655 24.1113 16.3095 23.7723 16.3095 23.3578ZM10.1935 23.3578V20.8463C10.1935 20.4318 9.84942 20.0928 9.42894 20.0928H6.88058C6.4601 20.0928 6.11607 20.4318 6.11607 20.8463V23.3578C6.11607 23.7723 6.4601 24.1113 6.88058 24.1113H9.42894C9.84942 24.1113 10.1935 23.7723 10.1935 23.3578ZM22.4256 23.3578V20.8463C22.4256 20.4318 22.0816 20.0928 21.6611 20.0928H19.1127C18.6922 20.0928 18.3482 20.4318 18.3482 20.8463V23.3578C18.3482 23.7723 18.6922 24.1113 19.1127 24.1113H21.6611C22.0816 24.1113 22.4256 23.7723 22.4256 23.3578ZM28.5417 7.03247V29.1345C28.5417 30.7985 27.1719 32.1484 25.4836 32.1484H3.05804C1.36975 32.1484 0 30.7985 0 29.1345V7.03247C0 5.36854 1.36975 4.01855 3.05804 4.01855H6.11607V0.753479C6.11607 0.339066 6.4601 0 6.88058 0H9.42894C9.84942 0 10.1935 0.339066 10.1935 0.753479V4.01855H18.3482V0.753479C18.3482 0.339066 18.6922 0 19.1127 0H21.6611C22.0816 0 22.4256 0.339066 22.4256 0.753479V4.01855H25.4836C27.1719 4.01855 28.5417 5.36854 28.5417 7.03247ZM25.4836 28.7578V10.0464H3.05804V28.7578C3.05804 28.965 3.23005 29.1345 3.44029 29.1345H25.1014C25.3116 29.1345 25.4836 28.965 25.4836 28.7578Z" fill="#010F1C"/>
</svg>
