<svg width="6" height="23" viewBox="0 0 6 23" fill="none" xmlns="http://www.w3.org/2000/svg">
<path d="M5.89601 11.3376C5.89601 10.0179 4.77963 8.948 3.4025 8.948C2.02538 8.948 0.908997 10.0179 0.908997 11.3376C0.908997 12.6574 2.02538 13.7272 3.4025 13.7272C4.77963 13.7272 5.89601 12.6574 5.89601 11.3376Z" fill="#B3B3B3"/>
<path d="M5.89601 2.97397C5.89601 1.65423 4.77963 0.584361 3.4025 0.584361C2.02538 0.584361 0.908997 1.65423 0.908997 2.97397C0.908997 4.29372 2.02538 5.36359 3.4025 5.36359C4.77963 5.36359 5.89601 4.29372 5.89601 2.97397Z" fill="#B3B3B3"/>
<path d="M5.89601 19.7012C5.89601 18.3815 4.77963 17.3116 3.4025 17.3116C2.02538 17.3116 0.908997 18.3815 0.908997 19.7012C0.908997 21.021 2.02538 22.0909 3.4025 22.0909C4.77963 22.0909 5.89601 21.021 5.89601 19.7012Z" fill="#B3B3B3"/>
</svg>
